<?xml version="1.0" encoding="utf-8"?>
<!-- Generator: Adobe Illustrator 26.2.1, SVG Export Plug-In . SVG Version: 6.00 Build 0)  -->
<svg version="1.1" id="Capa_1" xmlns="http://www.w3.org/2000/svg" xmlns:xlink="http://www.w3.org/1999/xlink" x="0px" y="0px"
	 viewBox="0 0 595.28 584.46" style="enable-background:new 0 0 595.28 584.46;" xml:space="preserve">
<style type="text/css">
	.st0{fill:none;}
	.st1{fill:url(#SVGID_1_);}
	.st2{fill:url(#SVGID_00000116230056872862335770000001620628237754001056_);}
	.st3{fill:url(#SVGID_00000047059844438840363160000007421143858442804664_);}
	.st4{fill:url(#SVGID_00000067205769362777311570000014224125892511086014_);}
</style>
<g>
	<path d="M128.64,527.88c-0.33-1.68-0.66-2.56-1.02-3.12c-0.56-0.84-1.09-1.12-3.59-1.12h-2.3v17.28c0,2.77,0.26,3.12,3.36,3.33
		v0.98h-9.41v-0.98c2.99-0.21,3.26-0.56,3.26-3.33v-17.28h-2.04c-2.73,0-3.39,0.32-3.82,1.09c-0.4,0.6-0.66,1.61-1.05,3.15h-0.95
		c0.16-2.1,0.33-4.38,0.39-6.31h0.66c0.46,0.81,0.89,0.88,1.81,0.88h13c0.89,0,1.15-0.21,1.65-0.88h0.69
		c0.03,1.61,0.16,4.17,0.36,6.2L128.64,527.88z"/>
	<path d="M153.48,523.43c-2.7,0.25-2.96,0.42-2.96,3.33v14.16c0,2.94,0.26,3.12,2.93,3.33v0.98h-8.82v-0.98
		c2.83-0.21,3.09-0.39,3.09-3.33v-6.97H136.5v6.97c0,2.91,0.26,3.12,2.96,3.33v0.98h-8.65v-0.98c2.63-0.21,2.9-0.39,2.9-3.33v-14.16
		c0-2.94-0.26-3.12-2.96-3.33v-0.98h8.52v0.98c-2.5,0.21-2.76,0.42-2.76,3.33v5.68h11.22v-5.68c0-2.91-0.26-3.08-2.83-3.33v-0.98
		h8.59V523.43z"/>
	<path d="M171.7,539.69c-0.2,1.16-0.86,4.45-1.15,5.54h-15.86v-0.98c2.99-0.25,3.26-0.53,3.26-3.4V526.9c0-3.12-0.26-3.26-2.83-3.47
		v-0.98h14.67c0,0.88,0.16,3.26,0.26,5.05l-0.95,0.14c-0.3-1.47-0.63-2.24-1.05-2.98c-0.46-0.77-1.35-1.02-3.72-1.02h-2.5
		c-1.02,0-1.09,0.11-1.09,1.12v7.99h3.09c2.99,0,3.16-0.28,3.55-2.63h0.95v6.69h-0.95c-0.43-2.49-0.66-2.7-3.52-2.7h-3.13v6.62
		c0,1.65,0.2,2.42,0.79,2.84c0.63,0.46,1.78,0.46,3.42,0.46c2.5,0,3.42-0.28,4.15-1.19c0.56-0.7,1.18-1.93,1.64-3.29L171.7,539.69z"
		/>
	<path d="M192.1,545.5c-0.4,0-0.79,0-1.15-0.03c-2.5-0.14-3.85-0.91-5.33-3.19c-1.15-1.72-2.34-3.89-3.32-5.61
		c-0.56-0.98-1.12-1.4-2.8-1.4h-1.05v5.57c0,2.98,0.3,3.19,2.9,3.4v0.98h-8.62v-0.98c2.7-0.21,2.96-0.42,2.96-3.4v-14.09
		c0-2.98-0.26-3.08-2.83-3.33v-0.98h8.16c2.4,0,4.01,0.32,5.23,1.19c1.35,0.91,2.2,2.49,2.2,4.59c0,3.01-1.78,4.87-4.18,6.03
		c0.56,1.12,1.94,3.47,2.93,5.05c1.18,1.82,1.84,2.73,2.67,3.64c0.86,1.05,1.65,1.44,2.37,1.65L192.1,545.5z M180.03,534.15
		c1.64,0,2.73-0.28,3.55-1.02c1.28-1.05,1.81-2.45,1.81-4.34c0-3.78-2.34-5.19-4.8-5.19c-0.95,0-1.51,0.14-1.78,0.35
		c-0.26,0.18-0.36,0.56-0.36,1.54v8.66H180.03z"/>
	<path d="M205.16,545.22v-0.98c2.07-0.28,2.37-0.56,1.94-1.93c-0.43-1.37-1.09-3.26-1.81-5.4h-7.01c-0.53,1.58-1.02,3.05-1.45,4.52
		c-0.69,2.21-0.43,2.56,2.07,2.8v0.98h-7.17v-0.98c2.11-0.32,2.57-0.53,3.69-3.64l6.81-18.36l1.02-0.32
		c2.04,5.99,4.24,12.68,6.35,18.78c1.02,3.01,1.48,3.33,3.62,3.54v0.98H205.16z M201.94,526.48h-0.07
		c-1.05,2.98-2.07,6.06-3.09,8.94h6.05L201.94,526.48z"/>
	<path d="M222.5,522.45c2.34,0,4.24,0.42,5.56,1.44c1.28,1.05,2.11,2.66,2.11,4.94c0,4.56-3.19,6.76-6.42,7.18
		c-0.49,0.07-1.12,0.07-1.48,0.04l-2.43-0.67v5.5c0,2.98,0.3,3.15,3.26,3.36v0.98h-8.92v-0.98c2.63-0.21,2.9-0.49,2.9-3.4v-14.02
		c0-3.08-0.26-3.22-2.7-3.4v-0.98H222.5z M219.83,534.22c0.43,0.18,1.32,0.42,2.4,0.42c2.14,0,4.77-1.23,4.77-5.68
		c0-3.78-2.27-5.4-4.97-5.4c-0.92,0-1.61,0.18-1.84,0.42c-0.26,0.21-0.36,0.63-0.36,1.65V534.22z"/>
	<path d="M248.22,539.69c-0.2,1.16-0.86,4.45-1.15,5.54h-15.86v-0.98c2.99-0.25,3.26-0.53,3.26-3.4V526.9
		c0-3.12-0.26-3.26-2.83-3.47v-0.98h14.67c0,0.88,0.16,3.26,0.26,5.05l-0.95,0.14c-0.3-1.47-0.63-2.24-1.05-2.98
		c-0.46-0.77-1.35-1.02-3.72-1.02h-2.5c-1.02,0-1.09,0.11-1.09,1.12v7.99h3.09c2.99,0,3.16-0.28,3.55-2.63h0.95v6.69h-0.95
		c-0.43-2.49-0.66-2.7-3.52-2.7h-3.13v6.62c0,1.65,0.2,2.42,0.79,2.84c0.63,0.46,1.78,0.46,3.42,0.46c2.5,0,3.42-0.28,4.15-1.19
		c0.56-0.7,1.18-1.93,1.64-3.29L248.22,539.69z"/>
	<path d="M271.55,523.43c-1.97,0.14-2.73,0.6-2.86,2.07c-0.1,0.95-0.2,2.45-0.2,5.68v2.87c0,4.13-0.59,7.11-2.47,9.25
		c-1.55,1.68-3.75,2.42-5.92,2.42c-1.94,0-3.82-0.49-5.26-1.68c-1.97-1.61-2.9-4.2-2.9-8.34v-8.73c0-3.15-0.3-3.29-2.86-3.54v-0.98
		h8.49v0.98c-2.57,0.18-2.83,0.39-2.83,3.54v7.95c0,5.64,2.11,8.9,6.19,8.9c4.74,0,6.22-4.24,6.22-10.02v-2.63
		c0-3.22-0.1-4.7-0.23-5.78c-0.16-1.37-0.86-1.79-3.19-1.96v-0.98h7.83V523.43z"/>
	<path d="M289.74,527.88c-0.33-1.68-0.66-2.56-1.02-3.12c-0.56-0.84-1.09-1.12-3.59-1.12h-2.3v17.28c0,2.77,0.26,3.12,3.36,3.33
		v0.98h-9.41v-0.98c2.99-0.21,3.26-0.56,3.26-3.33v-17.28H278c-2.73,0-3.39,0.32-3.82,1.09c-0.4,0.6-0.66,1.61-1.05,3.15h-0.95
		c0.16-2.1,0.33-4.38,0.39-6.31h0.66c0.46,0.81,0.89,0.88,1.81,0.88h13c0.89,0,1.15-0.21,1.65-0.88h0.69
		c0.03,1.61,0.16,4.17,0.36,6.2L289.74,527.88z"/>
	<path d="M291.85,545.22v-0.98c2.7-0.21,2.96-0.42,2.96-3.4v-14.02c0-2.98-0.26-3.19-2.96-3.4v-0.98h8.72v0.98
		c-2.7,0.21-2.96,0.42-2.96,3.4v14.02c0,3.01,0.26,3.19,2.96,3.4v0.98H291.85z"/>
	<path d="M321.62,539.44c-0.46,1.61-1.28,4.2-1.88,5.4c-0.92,0.21-3.69,0.91-6.05,0.91c-8.19,0-11.78-6.03-11.78-11.6
		c0-7.39,5.33-12.23,12.67-12.23c2.67,0,4.9,0.77,5.82,0.95c0.26,1.96,0.46,3.4,0.66,5.26l-0.95,0.28
		c-0.89-3.71-2.86-5.22-6.42-5.22c-5.49,0-8.42,4.94-8.42,10.27c0,6.55,3.62,11.04,8.62,11.04c3.36,0,5.13-1.93,6.78-5.4
		L321.62,539.44z"/>
	<path d="M347.58,545.22v-0.98c2.7-0.25,2.8-0.46,2.8-4.17l-0.13-14.3h-0.13l-8.03,19.2h-0.66l-7.37-18.71h-0.07l-0.49,9.99
		c-0.13,2.91-0.13,4.41-0.1,5.82c0.07,1.68,0.82,1.93,3.03,2.17v0.98h-7.67v-0.98c1.94-0.21,2.57-0.63,2.8-2.1
		c0.2-1.23,0.39-2.73,0.63-6.41l0.46-7.29c0.3-4.56,0.13-4.7-2.86-5.01v-0.98h5.4l7.5,17.56l7.63-17.56h5.59v0.98
		c-2.93,0.28-3.13,0.35-3.03,3.96l0.3,12.69c0.1,3.71,0.2,3.92,3.06,4.17v0.98H347.58z"/>
	<path d="M370.34,545.22v-0.98c2.07-0.28,2.37-0.56,1.94-1.93c-0.43-1.37-1.09-3.26-1.81-5.4h-7.01c-0.53,1.58-1.02,3.05-1.45,4.52
		c-0.69,2.21-0.43,2.56,2.07,2.8v0.98h-7.17v-0.98c2.11-0.32,2.57-0.53,3.69-3.64l6.81-18.36l1.02-0.32
		c2.04,5.99,4.24,12.68,6.35,18.78c1.02,3.01,1.48,3.33,3.62,3.54v0.98H370.34z M367.12,526.48h-0.07
		c-1.05,2.98-2.07,6.06-3.09,8.94h6.05L367.12,526.48z"/>
	<path d="M390.44,527.74c-0.56-2.21-1.45-4.62-4.31-4.62c-2.53,0-3.65,1.93-3.65,3.82c0,2.56,1.58,3.78,4.18,5.19
		c2.6,1.44,5.69,3.05,5.69,7.01c0,3.68-2.93,6.62-7.3,6.62c-1.35,0-2.43-0.28-3.22-0.53c-0.82-0.28-1.32-0.56-1.65-0.74
		c-0.23-0.74-0.66-3.75-0.89-5.43l0.99-0.24c0.49,2.14,1.97,5.68,5.4,5.68c2.5,0,3.95-1.65,3.95-4.2c0-2.59-1.81-3.82-4.28-5.22
		c-2.11-1.23-5.43-2.94-5.43-6.9c0-3.36,2.53-6.24,6.78-6.24c1.51,0,2.9,0.39,4.15,0.81c0.13,1.23,0.3,2.63,0.56,4.84L390.44,527.74
		z"/>
	<path d="M405.08,527.74c-0.56-2.21-1.45-4.62-4.31-4.62c-2.53,0-3.65,1.93-3.65,3.82c0,2.56,1.58,3.78,4.18,5.19
		c2.6,1.44,5.69,3.05,5.69,7.01c0,3.68-2.93,6.62-7.3,6.62c-1.35,0-2.44-0.28-3.22-0.53c-0.82-0.28-1.32-0.56-1.65-0.74
		c-0.23-0.74-0.66-3.75-0.89-5.43l0.99-0.24c0.49,2.14,1.97,5.68,5.4,5.68c2.5,0,3.95-1.65,3.95-4.2c0-2.59-1.81-3.82-4.28-5.22
		c-2.11-1.23-5.43-2.94-5.43-6.9c0-3.36,2.53-6.24,6.78-6.24c1.51,0,2.9,0.39,4.15,0.81c0.13,1.23,0.3,2.63,0.56,4.84L405.08,527.74
		z"/>
	<path d="M421.3,545.22v-0.98c2.07-0.28,2.37-0.56,1.94-1.93c-0.43-1.37-1.09-3.26-1.81-5.4h-7.01c-0.53,1.58-1.02,3.05-1.45,4.52
		c-0.69,2.21-0.43,2.56,2.07,2.8v0.98h-7.17v-0.98c2.11-0.32,2.57-0.53,3.69-3.64l6.81-18.36l1.02-0.32
		c2.04,5.99,4.24,12.68,6.35,18.78c1.02,3.01,1.48,3.33,3.62,3.54v0.98H421.3z M418.08,526.48h-0.07c-1.05,2.98-2.07,6.06-3.09,8.94
		h6.05L418.08,526.48z"/>
	<path d="M450.85,535.62c-1.97,0.28-2.11,0.46-2.11,2.52v3.01c0,1.23,0.03,2.35,0.23,3.33c-2.04,0.49-4.74,1.26-7.37,1.26
		c-7.24,0-12.08-4.8-12.08-11.77c0-8.09,6.12-12.05,12.57-12.05c2.76,0,5.26,0.77,6.35,1.02c0.1,1.23,0.26,3.15,0.49,5.47
		l-0.92,0.21c-0.79-4.31-3.26-5.47-6.42-5.47c-5.03,0-8.72,3.96-8.72,10.41c0,5.08,2.8,10.97,9.15,10.97c1.12,0,2.14-0.21,2.86-0.6
		c0.66-0.39,1.05-0.84,1.05-2.31v-2.98c0-2.52-0.2-2.77-3.45-3.01v-0.98h8.36V535.62z"/>
	<path d="M468.61,539.69c-0.2,1.16-0.86,4.45-1.15,5.54H451.6v-0.98c2.99-0.25,3.26-0.53,3.26-3.4V526.9c0-3.12-0.26-3.26-2.83-3.47
		v-0.98h14.67c0,0.88,0.17,3.26,0.26,5.05l-0.95,0.14c-0.3-1.47-0.62-2.24-1.05-2.98c-0.46-0.77-1.35-1.02-3.72-1.02h-2.5
		c-1.02,0-1.09,0.11-1.09,1.12v7.99h3.09c2.99,0,3.16-0.28,3.55-2.63h0.95v6.69h-0.95c-0.43-2.49-0.66-2.7-3.52-2.7h-3.13v6.62
		c0,1.65,0.2,2.42,0.79,2.84c0.62,0.46,1.78,0.46,3.42,0.46c2.5,0,3.42-0.28,4.15-1.19c0.56-0.7,1.18-1.93,1.65-3.29L468.61,539.69z
		"/>
	<path d="M480.88,527.74c-0.56-2.21-1.45-4.62-4.31-4.62c-2.53,0-3.65,1.93-3.65,3.82c0,2.56,1.58,3.78,4.18,5.19
		c2.6,1.44,5.69,3.05,5.69,7.01c0,3.68-2.93,6.62-7.3,6.62c-1.35,0-2.44-0.28-3.22-0.53c-0.82-0.28-1.32-0.56-1.65-0.74
		c-0.23-0.74-0.66-3.75-0.89-5.43l0.99-0.24c0.49,2.14,1.97,5.68,5.4,5.68c2.5,0,3.95-1.65,3.95-4.2c0-2.59-1.81-3.82-4.28-5.22
		c-2.11-1.23-5.43-2.94-5.43-6.9c0-3.36,2.53-6.24,6.78-6.24c1.51,0,2.9,0.39,4.15,0.81c0.13,1.23,0.3,2.63,0.56,4.84L480.88,527.74
		z"/>
</g>
<rect x="102.79" y="432.84" width="7.54" height="74.25"/>
<polygon points="181.08,432.84 181.08,492.67 135.79,432.84 128.25,432.84 128.25,507.09 135.79,507.09 135.79,446.62 
	181.08,507.09 188.62,507.09 188.62,432.84 "/>
<path d="M238.59,432.84L238.59,432.84l-24.82,0h-6.53h-1.02v74.25h7.54v0h13.32v0h11.48c0,0,0,0,0,0h0.03v0
	c19.71-0.02,35.69-16,35.69-35.72v-2.81C274.28,448.84,258.3,432.86,238.59,432.84z M266.73,471.29c0,15.6-12.65,28.25-28.25,28.25
	h-24.72v-59.16h13.32v0h11.4c15.6,0,28.25,12.65,28.25,28.25V471.29z"/>
<polygon points="338.3,432.84 338.3,466.19 293.01,466.19 293.01,432.84 285.47,432.84 285.47,507.09 293.01,507.09 293.01,472.78 
	338.3,472.78 338.3,507.09 345.84,507.09 345.84,432.84 "/>
<path d="M489.2,507.09l-17.69-24.96c9.07-3.67,15.46-12.55,15.46-22.94v-1.61c0-13.66-11.08-24.74-24.74-24.74h-3.74h-1.75h-18.29v0
	h-7.54v74.25h7.54v-23.15h18.29h1.75h3.74c0.5,0,1-0.02,1.49-0.05l16.45,23.2H489.2z M438.46,477.06v-37.35h18.29v0h5.36
	c9.7,0,17.57,7.87,17.57,17.57v2.21c0,9.7-7.87,17.57-17.57,17.57h-3.61v0H438.46z"/>
<path d="M417.71,507.09h8.28l-33.37-74.25H392h-6.91h-0.63l-33.37,74.25h8.28l8.85-20.14h40.63L417.71,507.09z M370.87,480.92
	l17.67-40.22l17.67,40.22H370.87z"/>
<path d="M554.34,507.09h8.28l-33.37-74.25h-0.63h-6.91h-0.63l-33.37,74.25H496l8.85-20.14h40.63L554.34,507.09z M507.5,480.92
	l17.67-40.22l17.67,40.22H507.5z"/>
<polygon points="97.09,507.09 62.96,466.63 94.87,432.84 85.84,432.84 42.96,477.69 42.96,432.84 35.42,432.84 35.42,507.09 
	42.96,507.09 42.96,487.81 57.8,472.09 87.32,507.09 "/>
<path class="st0" d="M301.05,291.56c0,0,0.92-1.34,2.6-3.77c-2.85-2.12-5.73-4.25-8.62-6.38
	C298.82,289.09,301.05,291.56,301.05,291.56z"/>
<linearGradient id="SVGID_1_" gradientUnits="userSpaceOnUse" x1="153.9625" y1="28.6249" x2="264.2373" y2="245.0514">
	<stop  offset="0" style="stop-color:#A6A447"/>
	<stop  offset="1" style="stop-color:#8D8B36"/>
</linearGradient>
<path class="st1" d="M196.99,89.71c0,0,4.09-8.38,0-16.35s-23.3-26.16-37.61-33.72c-14.31-7.56-17.37-6.34-18.8-2.86
	c-1.43,3.47,4.29,13.9,12.47,29.43c4.82,9.16,44.38,83.96,76.8,145.42c14.36,9.14,29.65,18.98,44.13,28.46
	C245.14,183.68,196.99,89.71,196.99,89.71z"/>
<linearGradient id="SVGID_00000167369506534761335530000007119048717028615578_" gradientUnits="userSpaceOnUse" x1="351.4158" y1="302.8444" x2="457.4472" y2="391.8153">
	<stop  offset="0" style="stop-color:#775CA3"/>
	<stop  offset="1" style="stop-color:#543B7F"/>
</linearGradient>
<path style="fill:url(#SVGID_00000167369506534761335530000007119048717028615578_);" d="M341.46,316.28
	c9.42,7.2,16.94,13.02,21.24,16.39c16.76,13.15,70.23,56.5,74.42,59.82c4.19,3.32,16.04,4.34,20.37-0.72
	c4.33-5.06-4.05-20.66-12.57-30.34c-8.53-9.68-23.55-21.96-26.15-22.98c-2.6-1.01-11.25-2.09-11.25-2.09s-22.58-17.65-51.48-39.02
	c-2.99,4.35-5.19,7.54-6.37,9.23C346.96,310.44,344.21,313.64,341.46,316.28z"/>
<linearGradient id="SVGID_00000173146795434311155650000007034449313722307975_" gradientUnits="userSpaceOnUse" x1="350.4245" y1="132.812" x2="402.3347" y2="302.6028">
	<stop  offset="0" style="stop-color:#A7A24E"/>
	<stop  offset="1" style="stop-color:#504F22"/>
</linearGradient>
<path style="fill:url(#SVGID_00000173146795434311155650000007034449313722307975_);" d="M475.69,104.06
	c-6.1-2.84-23.71-2.56-36.77,1.7c-13.06,4.26-15.33,8.23-18.74,13.2c-2.62,3.82-71.78,104-103.49,149.94
	c-5.82,8.42-10.37,15.02-13.03,18.87c-1.68,2.43-2.6,3.77-2.6,3.77s-2.23-2.47-6.01-10.15c-15.88-11.7-32-23.32-45.59-32.6
	c13.13,24.95,22.54,42.89,23.58,45.08c3.68,7.77,10.42,19.42,16.56,24.53c6.13,5.11,16.35,9.2,25.96,9.2
	c7.41,0,16.64-2.44,25.92-11.34c2.75-2.64,5.5-5.84,8.21-9.71c1.18-1.69,3.38-4.87,6.37-9.23
	c27.03-39.34,119.32-174.76,121.5-178.08C479.95,115.56,481.79,106.9,475.69,104.06z"/>
<linearGradient id="SVGID_00000084531490158994644960000002101203643015527350_" gradientUnits="userSpaceOnUse" x1="230.4961" y1="192.0376" x2="167.5893" y2="397.7965">
	<stop  offset="0" style="stop-color:#8061A7"/>
	<stop  offset="1" style="stop-color:#4B3575"/>
</linearGradient>
<path style="fill:url(#SVGID_00000084531490158994644960000002101203643015527350_);" d="M296.28,254.87
	c-7.02-4.72-14.54-9.7-22.3-14.78c-14.48-9.49-29.77-19.33-44.13-28.46c-32.58-20.73-60.36-37.84-62.9-38.98
	c-4.26-1.9-18.69,0.29-22.35,1.61c-3.66,1.32-19.45,10.67-22.52,15.35c-3.07,4.68-3.27,13.47-2.24,17.59
	c1.03,4.12,47.11,157.54,47.11,157.54c-6.95-2.83-26.58-23.68-26.58-23.68c5,13.46,17.17,34.46,31.95,49.95
	c14.78,15.5,38.14,20.5,56.97,23.12c18.83,2.62,22.17-3.81,20.74-15.26c-1.43-11.44-13.39-28.32-32.4-65.12
	c-19.01-36.79-37.99-88.71-42.56-103.82c-4.57-15.11-4.57-18.3-3.88-23.29c0.69-4.99,3.05-5.54,5.54-4.3
	c2.5,1.25,8.18,4.71,11.92,6.51c3.74,1.8,15.89,10.04,53.88,35.28c2.22,1.47,4.53,3.03,6.92,4.66c13.59,9.28,29.72,20.9,45.59,32.6
	c2.89,2.13,5.76,4.26,8.62,6.38c2.66-3.85,7.21-10.45,13.03-18.87C309.79,264.07,302.93,259.34,296.28,254.87z"/>
</svg>
